<?xml version="1.0" encoding="UTF-8"?>
<svg width="171px" height="133px" viewBox="0 0 171 133" version="1.1" xmlns="http://www.w3.org/2000/svg" xmlns:xlink="http://www.w3.org/1999/xlink">
    <!-- Generator: Sketch 42 (36781) - http://www.bohemiancoding.com/sketch -->
    <title>Cloud Sun 2 Copy</title>
    <desc>Created with Sketch.</desc>
    <defs></defs>
    <g id="Page-1" stroke="none" stroke-width="1" fill="none" fill-rule="evenodd">
        <g id="Artboard" transform="translate(-13.000000, -34.000000)" stroke="#000000">
            <g id="Cloud-Sun-2-Copy" transform="translate(18.000000, 37.000000)">
                <path d="M113.979525,45.9035799 C107.817284,25.882906 89.1401007,11.3282443 67.0561798,11.3282443 C44.7005994,11.3282443 25.8360861,26.2431891 19.9111228,46.6448815 C8.5448758,48.9859273 0,59.0296674 0,71.0648855 C0,84.7763231 11.0908239,95.9029214 24.8089888,95.9993682 L130.516854,96 C140.445569,96 148.494382,87.9684669 148.494382,78.0610687 C148.494382,68.1536705 140.445569,60.1221374 130.516854,60.1221374 C130.419473,52.179809 123.937304,45.7709924 115.955056,45.7709924 C115.285013,45.7709924 114.62554,45.8161502 113.979526,45.9035822 Z" id="Cloud-2" stroke-width="9" opacity="0.99000001"></path>
                <path d="M135.445728,8.87490971 L138.655584,1.31296275 M153.576628,26.9233552 L161.193443,23.8459622 M153.604062,52.4751456 L161.166009,55.6850017 M109.832198,8.90234371 L106.754805,1.28552875" id="Line" stroke-width="8" stroke-linecap="round" opacity="0.99000001"></path>
                <path d="M143.95163,47.24924 C144.546444,45.1924684 144.865169,43.0188715 144.865169,40.7709924 C144.865169,27.8913747 134.401711,17.4503817 121.494382,17.4503817 C119.727488,17.4503817 118.006391,17.6460362 116.351661,18.0168175" id="Oval-10" stroke-width="9" stroke-linecap="round" opacity="0.99000001"></path>
                <g id="Rain" transform="translate(39.000000, 112.000000)" stroke-width="9" stroke-linecap="round">
                    <path d="M0.5,0.5 L13.0896788,13.0896788" id="Line"></path>
                    <path d="M31.5,0.5 L44.0896788,13.0896788" id="Line-Copy"></path>
                    <path d="M62.5,0.5 L75.0896788,13.0896788" id="Line-Copy-2"></path>
                </g>
            </g>
        </g>
    </g>
</svg>