<?xml version="1.0" encoding="UTF-8"?>
<svg width="164px" height="99px" viewBox="0 0 164 99" version="1.1" xmlns="http://www.w3.org/2000/svg" xmlns:xlink="http://www.w3.org/1999/xlink">
    <!-- Generator: Sketch 42 (36781) - http://www.bohemiancoding.com/sketch -->
    <title>Cloud + Moon Copy</title>
    <desc>Created with Sketch.</desc>
    <defs></defs>
    <g id="Page-1" stroke="none" stroke-width="1" fill="none" fill-rule="evenodd">
        <g id="Artboard-Copy-2" transform="translate(-18.000000, -50.000000)" stroke="#000000" stroke-width="9">
            <g id="Cloud-+-Moon-Copy" transform="translate(23.000000, 55.000000)">
                <g id="Cloud" transform="translate(0.000000, 4.000000)" opacity="0.99000001">
                    <path d="M113.979525,34.9035799 C107.817284,14.882906 89.1401007,0.328244275 67.0561798,0.328244275 C44.7005994,0.328244275 25.8360861,15.2431891 19.9111228,35.6448815 C8.5448758,37.9859273 0,48.0296674 0,60.0648855 C0,73.7763231 11.0908239,84.9029214 24.8089888,84.9993682 L130.516854,85 C140.445569,85 148.494382,76.9684669 148.494382,67.0610687 C148.494382,57.1536705 140.445569,49.1221374 130.516854,49.1221374 C130.419473,41.179809 123.937304,34.7709924 115.955056,34.7709924 C115.285013,34.7709924 114.62554,34.8161502 113.979526,34.9035822 Z" id="Cloud-2"></path>
                </g>
                <g id="Moon" transform="translate(109.000000, 0.000000)" stroke-linecap="round" stroke-linejoin="round">
                    <path d="M0.752605458,6.76182649 C4.46886411,3.56596467 9.03328035,1.32878255 14.0621172,0.434017084 C12.7326198,3.69440409 12,7.26164579 12,11 C12,26.463973 24.536027,39 40,39 C41.6848608,39 43.334964,38.8511853 44.9378828,38.5659829 C43.6486468,41.7276349 41.7981365,44.6007359 39.5101318,47.0615062 L39.5101318,47.0615062" id="Oval-31"></path>
                </g>
            </g>
        </g>
    </g>
</svg>