<?xml version="1.0" encoding="UTF-8"?>
<svg width="194px" height="127px" viewBox="0 0 194 127" version="1.1" xmlns="http://www.w3.org/2000/svg" xmlns:xlink="http://www.w3.org/1999/xlink">
    <!-- Generator: Sketch 42 (36781) - http://www.bohemiancoding.com/sketch -->
    <title>Cloudy 2 Light Rain</title>
    <desc>Created with Sketch.</desc>
    <defs></defs>
    <g id="Page-1" stroke="none" stroke-width="1" fill="none" fill-rule="evenodd">
        <g id="09d" transform="translate(-3.000000, -34.000000)">
            <g id="Cloudy-2-Light-Rain" transform="translate(8.000000, 39.000000)">
                <path d="M109.333322,38.290457 C103.422276,19.0137856 85.5064393,5 64.322736,5 C42.878447,5 24.7829171,19.36068 19.099476,39.0042105 C8.19655686,41.258259 0,50.9287566 0,62.5167254 C0,75.7186224 10.6387232,86.4317373 23.7976879,86.5246 L125.196532,86.5252083 C134.720517,86.5252083 142.441233,78.7921407 142.441233,69.2529184 C142.441233,59.7136961 134.720517,51.9806285 125.196532,51.9806285 C125.10312,44.3334506 118.885188,38.1627966 111.228324,38.1627966 C110.585594,38.1627966 109.953003,38.2062763 109.333323,38.2904592 Z" id="Cloudy" stroke="#000000" stroke-width="9"></path>
                <path d="M155.23099,61.8347036 L170.930771,61.8347978 C178.148707,61.8347978 184,55.9694627 184,48.7342051 C184,41.4989475 178.148707,35.6336123 170.930771,35.6336123 C170.859977,29.8334223 166.147598,25.1531381 160.344696,25.1531381 C159.857591,25.1531381 159.378169,25.1861163 158.908533,25.2499669 C154.428732,10.6291001 140.850871,0 124.796393,0 C117.670866,0 111.033205,2.09381419 105.462325,5.70113772" id="Cloudy" stroke="#000000" stroke-width="9" stroke-linecap="round"></path>
                <g id="Rain" transform="translate(41.000000, 95.000000)" fill="#000000">
                    <ellipse id="Oval-24" cx="5.0625" cy="5.0625" rx="5.0625" ry="5.0625"></ellipse>
                    <circle id="Oval-24-Copy" cx="34.3125" cy="5.0625" r="5.0625"></circle>
                    <circle id="Oval-24-Copy-2" cx="63.5625" cy="5.0625" r="5.0625"></circle>
                    <ellipse id="Oval-24" cx="5.0625" cy="21.9375" rx="5.0625" ry="5.0625"></ellipse>
                    <circle id="Oval-24-Copy" cx="34.3125" cy="21.9375" r="5.0625"></circle>
                    <circle id="Oval-24-Copy-2" cx="63.5625" cy="21.9375" r="5.0625"></circle>
                </g>
            </g>
        </g>
    </g>
</svg>