<?xml version="1.0" encoding="UTF-8"?>
<svg width="133px" height="80px" viewBox="0 0 133 80" version="1.1" xmlns="http://www.w3.org/2000/svg" xmlns:xlink="http://www.w3.org/1999/xlink">
    <!-- Generator: Sketch 42 (36781) - http://www.bohemiancoding.com/sketch -->
    <title>Fog</title>
    <desc>Created with Sketch.</desc>
    <defs></defs>
    <g id="Page-1" stroke="none" stroke-width="1" fill="none" fill-rule="evenodd" stroke-linecap="round">
        <g id="50d" transform="translate(-27.000000, -81.000000)" stroke="#000000" stroke-width="10">
            <g id="Fog" transform="translate(32.000000, 86.000000)">
                <path d="M0.74609375,0.484375 C22,0.21484375 23.0507812,8.43945312 43.0253906,8.484375 C63,8.52929687 63,0.455078125 83,0.3671875 C103,0.279296875 102.703125,8.36328125 123,8.50987625 M0.74609375,21.117899 C22,20.8483677 23.0507812,29.0729771 43.0253906,29.117899 C63,29.1628209 63,21.0886021 83,21.0007115 C103,20.9128209 102.703125,28.9968052 123,29.1434002 M0.74609375,41.117899 C22,40.8483677 23.0507812,49.0729771 43.0253906,49.117899 C63,49.1628209 63,41.0886021 83,41.0007115 C103,40.9128209 102.703125,48.9968052 123,49.1434002 M0.74609375,61.117899 C22,60.8483677 23.0507812,69.0729771 43.0253906,69.117899 C63,69.1628209 63,61.0886021 83,61.0007115 C103,60.9128209 102.703125,68.9968052 123,69.1434002" id="Line"></path>
                <path d="" id="Line-Copy-6"></path>
            </g>
        </g>
    </g>
</svg>