<?xml version="1.0" encoding="utf-8"?>
<!-- Generator: Adobe Illustrator 21.1.0, SVG Export Plug-In . SVG Version: 6.00 Build 0)  -->
<svg version="1.1" id="Layer_1" xmlns="http://www.w3.org/2000/svg" xmlns:xlink="http://www.w3.org/1999/xlink" x="0px" y="0px"
	 viewBox="0 0 1200 400" style="enable-background:new 0 0 1200 400;" xml:space="preserve">
<style type="text/css">
	.st0{fill:#12739E;}
	.st1{fill:#FFFFFF;}
	.st2{fill:#454C4C;}
</style>
<title>logo-grey</title>
<path class="st0" d="M426.3,98c-2.1-2.2-5-3.4-8.1-3.3h-132c-3,0-5.9,1.2-8.1,3.3l-60.9,60.9c-4.4,4.5-4.4,11.7,0,16.2L344.1,302
	c4.5,4.5,11.7,4.5,16.2,0l126.9-126.9c4.5-4.5,4.5-11.7,0-16.2c0,0,0,0,0,0L426.3,98z"/>
<path class="st1" d="M403.2,174.5c0,12.5,0,25,0.1,37.5c0,2.7-1,2.7-4.6,2.7c-7,0-13,0-19.4,0c-3.4,0-4.5,0.2-4.5-2.3
	c0.1-21.5,0-43,0.1-64.5c0.1-1.3,0.6-2.6,1.4-3.5c2.7-3,5.6-6,8.6-8.8c0.9-0.8,2-1.3,3.3-1.4c4.1-0.2,8.3,0,12.4-0.1
	c2.1-0.1,2.7,0.7,2.7,2.8C403.1,149.4,403.2,162,403.2,174.5z"/>
<path class="st1" d="M368.7,153.4c0.4-0.3,1-0.3,1.3,0.1c0.1,0.2,0.2,0.4,0.2,0.6c0,0.4,0,0.7,0,1c0,9.6,0.1,19.1-0.1,28.7
	c-0.1,1.4-0.6,2.7-1.5,3.7c-4.5,4.7-9.2,9.3-13.8,13.9c-1.3,1.3-2.1,1.4-3.5,0c-16.1-16.2-32.4-32.4-48.6-48.7
	c-0.9-1-1.5-2.3-1.6-3.7c-0.2-4,0-8.1-0.1-12.2c0-1.4,1.1-2.6,2.6-2.6c0,0,0.1,0,0.1,0c4.1,0.1,8.1,0.1,12.2,0
	c1.6-0.1,3.1,0.6,4.2,1.8c10.2,10.3,20.5,20.6,30.8,30.8c2.9,2.9,2,1.9,7.3-2.8c3.2-2.9,6.2-5.9,9-9.2
	C367.8,154.2,368.2,153.8,368.7,153.4z"/>
<path class="st1" d="M301.3,161.8c0.1-0.7,1-2.9,1.5-2.4c0.5,0.5,0.7,0.6,1,1c8.1,8,16.2,15.9,24.2,24c0.9,0.9,1.6,4.5,1.7,5.7
	c0.1,7.4,0,14.8,0.1,22.1c0,2-0.7,2.6-2.6,2.5c-7.8-0.1-15.7-0.1-23.5,0c-2,0-2.6-0.7-2.6-2.6c0-16.4,0-32.8,0-49.2
	C301.2,162.6,301.2,162.2,301.3,161.8z"/>
<path class="st2" d="M665.2,94.7h3c1-0.1,1.9,0.7,2,1.8c0,0.1,0,0.2,0,0.2v95.2c0.1,1-0.7,1.9-1.8,2c-0.1,0-0.2,0-0.2,0H659
	c-1,0.1-1.9-0.7-2-1.8c0-0.1,0-0.2,0-0.2v-67.6l-37,53.6c-0.4,0.8-1.3,1.1-2,0.7c-0.3-0.2-0.6-0.4-0.7-0.7l-37-53.6v67.6
	c0.1,1-0.7,1.9-1.8,2c-0.1,0-0.2,0-0.2,0h-9.2c-1,0.1-1.9-0.7-2-1.8c0-0.1,0-0.2,0-0.2V96.7c-0.1-1,0.7-1.9,1.8-2c0.1,0,0.2,0,0.2,0
	h3c1,0,1.9,0.5,2.4,1.4l44.1,61.6l44.1-61.6C663.3,95.2,664.2,94.7,665.2,94.7z"/>
<path class="st2" d="M786.2,193.9h-11c-1,0.1-1.9-0.5-2.3-1.5l-10.6-24.6h-45.9L705,192.4c-0.4,0.9-1.3,1.5-2.3,1.5H693
	c-1.4,0-2.3-0.9-1.6-2.4l45.1-95.4c0.4-0.9,1.3-1.5,2.3-1.5h3.2c1,0,1.9,0.6,2.3,1.5l43.4,95.4C788.4,193,787.7,193.9,786.2,193.9z
	 M757.7,157.3l-17.6-40.6l-18.8,40.6H757.7z"/>
<path class="st2" d="M822.9,98.3v93.6c0,1.1-0.9,2-2,2h-9.2c-1.1,0-2-0.9-2-2V98.3c0-1.1,0.9-2,2-2h9.2
	C822,96.3,822.9,97.2,822.9,98.3z M886,193.9h-11.8c-1,0.1-1.9-0.3-2.5-1.1l-44.1-48.5l43.7-46.9c0.6-0.7,1.5-1.1,2.5-1.1h10.9
	c1.7,0,2.4,1,1.2,2.4l-41.8,45l43,47.9C888.2,192.7,887.7,193.9,886,193.9z"/>
<path class="st2" d="M985.7,184.7v7.2c0.1,1-0.7,1.9-1.8,2c-0.1,0-0.2,0-0.2,0h-70.3c-1.1,0-2-0.9-2-2V98.3c0-1.1,0.9-2,2-2h68.7
	c1-0.1,1.9,0.7,2,1.8c0,0.1,0,0.2,0,0.2v7.2c0.1,1-0.7,1.9-1.8,2c-0.1,0-0.2,0-0.2,0h-57.5v30.6h51.1c1-0.1,1.9,0.7,2,1.8
	c0,0.1,0,0.2,0,0.2v7.2c0.1,1-0.7,1.9-1.8,2c-0.1,0-0.2,0-0.2,0h-51.1v33.4h59.1c1-0.1,1.9,0.7,2,1.8
	C985.7,184.6,985.7,184.6,985.7,184.7z"/>
<path class="st2" d="M614.1,287.5c0,12.3-11.4,17.8-24.1,17.8c-9.5,0-16.3-3-22.1-6.6c-0.6-0.2-0.9-0.9-0.7-1.5
	c0-0.1,0.1-0.1,0.1-0.2l2-4.4c0.2-0.6,0.9-0.9,1.5-0.7c0.1,0,0.2,0.1,0.3,0.1c5.3,3,10.2,6.1,19.4,6.1c8.9,0,14.9-2.9,14.9-9.6
	c0-16.6-36.5-7.3-36.5-29.2c0-9.7,8-17.6,23-17.6c9.8,0,15.5,3,20,5.6c0.6,0.3,0.9,1,0.6,1.6c0,0,0,0.1-0.1,0.1l-2.1,4.6
	c-0.4,0.7-0.9,1-1.9,0.3c-4.9-3.4-10.7-5.2-16.6-5.3c-10.4,0-14.7,5-14.7,10.1C577.2,273.5,614.1,265.2,614.1,287.5z"/>
<path class="st2" d="M687.9,289.2c-5.8,11.6-14.9,16.1-25.9,16.1c-16.2,0-31.5-12.1-31.5-31.8s15.3-31.8,31.5-31.8
	c11,0,20.1,4.5,25.9,16.1c0.3,0.6,0.2,1.3-0.4,1.6c-0.1,0-0.2,0.1-0.2,0.1l-4.5,2.1c-0.6,0.3-1.4,0.1-1.7-0.5c0-0.1-0.1-0.1-0.1-0.2
	c-4.4-8.8-11.2-12.2-19-12.2c-13.2,0-22.7,10.1-22.7,24.7s9.5,24.7,22.7,24.7c7.8,0,14.6-3.5,19-12.2c0.2-0.6,0.9-1,1.6-0.8
	c0.1,0,0.1,0.1,0.2,0.1l4.5,2.1c0.6,0.2,0.9,0.9,0.7,1.5C688,289.1,688,289.1,687.9,289.2z"/>
<path class="st2" d="M763.1,243.9v59.2c0,0.7-0.6,1.3-1.3,1.3h-5.8c-0.7,0-1.3-0.6-1.3-1.3v-27h-38.4v27c0,0.7-0.6,1.3-1.3,1.3h-5.8
	c-0.7,0-1.3-0.6-1.3-1.3v-59.2c0-0.7,0.6-1.2,1.3-1.3h5.8c0.7,0,1.3,0.6,1.3,1.3v25.1h38.4v-25.1c0-0.7,0.6-1.2,1.3-1.3h5.8
	C762.6,242.7,763.1,243.3,763.1,243.9z"/>
<path class="st2" d="M846.5,273.5c0,19.6-15.3,31.8-31.5,31.8s-31.5-12.1-31.5-31.8s15.3-31.8,31.5-31.8S846.5,253.9,846.5,273.5z
	 M837.8,273.5c0-14.6-9.5-24.7-22.7-24.7s-22.7,10.1-22.7,24.7s9.5,24.7,22.7,24.7S837.8,288.2,837.8,273.5z"/>
<path class="st2" d="M926,273.5c0,19.6-15.3,31.8-31.5,31.8s-31.5-12.1-31.5-31.8s15.3-31.8,31.5-31.8S926,253.9,926,273.5z
	 M917.3,273.5c0-14.6-9.5-24.7-22.7-24.7s-22.7,10.1-22.7,24.7s9.5,24.7,22.7,24.7S917.3,288.2,917.3,273.5z"/>
<path class="st2" d="M986.1,298.6v4.6c0,0.7-0.4,1.2-1.1,1.3c-0.1,0-0.1,0-0.2,0h-41.2c-0.7,0-1.3-0.6-1.3-1.3v-59.2
	c0-0.7,0.6-1.2,1.3-1.3h5.8c0.7,0,1.2,0.6,1.3,1.3v53.4h34.1c0.7-0.1,1.2,0.4,1.3,1.1C986.1,298.5,986.1,298.5,986.1,298.6z"/>
</svg>
