<?xml version="1.0" encoding="UTF-8"?>
<svg width="158px" height="125px" viewBox="0 0 158 125" version="1.1" xmlns="http://www.w3.org/2000/svg" xmlns:xlink="http://www.w3.org/1999/xlink">
    <!-- Generator: Sketch 42 (36781) - http://www.bohemiancoding.com/sketch -->
    <title>Cloud + Snow</title>
    <desc>Created with Sketch.</desc>
    <defs></defs>
    <g id="Page-1" stroke="none" stroke-width="1" fill="none" fill-rule="evenodd">
        <g id="13d" transform="translate(-20.000000, -35.000000)" stroke="#000000">
            <g id="Cloud-+-Snow" transform="translate(25.000000, 40.000000)">
                <g id="Cloud" stroke-width="9" opacity="0.99000001">
                    <path d="M113.979525,34.9035799 C107.817284,14.882906 89.1401007,0.328244275 67.0561798,0.328244275 C44.7005994,0.328244275 25.8360861,15.2431891 19.9111228,35.6448815 C8.5448758,37.9859273 0,48.0296674 0,60.0648855 C0,73.7763231 11.0908239,84.9029214 24.8089888,84.9993682 L130.516854,85 C140.445569,85 148.494382,76.9684669 148.494382,67.0610687 C148.494382,57.1536705 140.445569,49.1221374 130.516854,49.1221374 C130.419473,41.179809 123.937304,34.7709924 115.955056,34.7709924 C115.285013,34.7709924 114.62554,34.8161502 113.979526,34.9035822 Z" id="Cloud-2"></path>
                </g>
                <g id="Snow" transform="translate(31.000000, 93.000000)" stroke-width="5" stroke-linecap="round">
                    <path d="M1.5,9.5 L15.5,9.5 M12,3.43782217 L5,15.5621778 M12,15.5621778 L5,3.43782217" id="Line"></path>
                    <path d="M37.6471143,17.7451905 L51.6471143,17.7451905 M48.1471143,11.6830127 L41.1471143,23.8073684 M48.1471143,23.8073684 L41.1471143,11.6830127" id="Line-Copy-3"></path>
                    <path d="M69.6471143,9.74519053 L83.6471143,9.74519053 M80.1471143,3.6830127 L73.1471143,15.8073684 M80.1471143,15.8073684 L73.1471143,3.6830127" id="Line-Copy-4"></path>
                </g>
            </g>
        </g>
    </g>
</svg>