<svg id="Layer_1" data-name="Layer 1" xmlns="http://www.w3.org/2000/svg" viewBox="0 0 785.11 227.68"><defs><style>.cls-1{fill:#12739e;}.cls-2{fill:#fff;}.cls-3{fill:#454c4c;}</style></defs><title>logo-grey</title><path class="cls-1" d="M218.85,11.85a11.34,11.34,0,0,0-8.08-3.35h-132a11.35,11.35,0,0,0-8.08,3.35L9.75,72.75a11.45,11.45,0,0,0,0,16.16L136.67,215.83a11.44,11.44,0,0,0,16.16,0L279.75,88.91a11.42,11.42,0,0,0,0-16.16Z"/><path class="cls-2" d="M195.72,88.36c0,12.49,0,25,.05,37.46,0,2.7-1,2.68-4.63,2.68-6.95,0-12.95,0-19.44,0-3.4,0-4.49.21-4.48-2.27.05-21.51,0-43,.1-64.54a5.8,5.8,0,0,1,1.44-3.54q4.1-4.56,8.59-8.75A5.06,5.06,0,0,1,180.62,48c4.13-.16,8.28,0,12.41-.1,2.09-.06,2.74.7,2.73,2.76C195.69,63.24,195.72,75.8,195.72,88.36Z"/><path class="cls-2" d="M161.29,67.21a.93.93,0,0,1,1.55.64c0,.37,0,.68,0,1,0,9.55.06,19.11-.06,28.66a6.44,6.44,0,0,1-1.52,3.74c-4.51,4.73-9.23,9.26-13.79,13.94-1.28,1.32-2.12,1.41-3.47,0C127.85,99,111.59,82.78,95.43,66.49a6.12,6.12,0,0,1-1.59-3.74c-.2-4,0-8.12-.1-12.18a2.6,2.6,0,0,1,2.67-2.64q6.11.14,12.2,0a5.33,5.33,0,0,1,4.17,1.77q15.35,15.45,30.79,30.82c2.88,2.88,2,1.9,7.29-2.79a104.42,104.42,0,0,0,9-9.17A14.73,14.73,0,0,1,161.29,67.21Z"/><path class="cls-2" d="M93.89,75.66c.12-.73,1-2.9,1.53-2.41s.74.65,1,1c8.08,8,16.19,15.94,24.17,24,.88.89,1.63,4.49,1.66,5.74.15,7.37,0,14.75.11,22.12,0,2-.66,2.55-2.6,2.53q-11.75-.15-23.48,0c-2,0-2.6-.73-2.59-2.64,0-16.4,0-32.8,0-49.21A6.7,6.7,0,0,1,93.89,75.66Z"/><path class="cls-3" d="M457.76,8.54h3a1.89,1.89,0,0,1,2,2v95.22a1.89,1.89,0,0,1-2,2H451.6a1.89,1.89,0,0,1-2-2V38.19l-37,53.57a1.52,1.52,0,0,1-2.76,0l-37-53.57v67.57a1.89,1.89,0,0,1-2,2h-9.16a1.89,1.89,0,0,1-2-2V10.54a1.89,1.89,0,0,1,2-2h3A3,3,0,0,1,367.1,9.9l44.09,61.57L455.32,9.9A2.89,2.89,0,0,1,457.76,8.54Z"/><path class="cls-3" d="M578.8,107.76h-11a2.23,2.23,0,0,1-2.28-1.48l-10.64-24.6H509l-11.4,24.6a2.35,2.35,0,0,1-2.28,1.48h-9.77c-1.44,0-2.28-.88-1.6-2.36L529.1,10a2.33,2.33,0,0,1,2.29-1.48h3.2A2.39,2.39,0,0,1,536.87,10l43.41,95.38C580.92,106.88,580.24,107.76,578.8,107.76ZM550.27,71.11,532.71,30.5,513.9,71.11Z"/><path class="cls-3" d="M615.45,12.14v93.62a2,2,0,0,1-2,2h-9.16a2,2,0,0,1-2-2V12.14a2,2,0,0,1,2-2h9.16A2,2,0,0,1,615.45,12.14Zm63.06,95.62H666.7a3,3,0,0,1-2.48-1.08L620.17,58.15l43.69-46.93a2.93,2.93,0,0,1,2.48-1.08h10.89c1.68,0,2.36,1,1.16,2.4l-41.77,45,43,47.85C680.79,106.56,680.23,107.76,678.51,107.76Z"/><path class="cls-3" d="M778.21,98.56v7.2a1.89,1.89,0,0,1-2,2h-70.3a2,2,0,0,1-2-2V12.14a2,2,0,0,1,2-2h68.7a1.89,1.89,0,0,1,2,2v7.2a1.89,1.89,0,0,1-2,2H717.08V51.91h51.13a1.88,1.88,0,0,1,2,2v7.24a1.89,1.89,0,0,1-2,2H717.08V96.56h59.13A1.89,1.89,0,0,1,778.21,98.56Z"/><path class="cls-3" d="M406.65,201.36c0,12.34-11.36,17.78-24.06,17.78-9.51,0-16.26-3-22.11-6.58a1.19,1.19,0,0,1-.6-1.72l2-4.37a1.14,1.14,0,0,1,1.74-.53c5.26,3,10.22,6.12,19.38,6.12,8.9,0,14.92-2.86,14.92-9.64,0-16.57-36.5-7.31-36.5-29.19,0-9.74,8-17.63,23-17.63,9.82,0,15.51,3,20,5.56a1.21,1.21,0,0,1,.58,1.72l-2.15,4.63c-.36.74-.89,1-1.92.31a30.41,30.41,0,0,0-16.6-5.34c-10.44,0-14.67,5-14.67,10.09C369.74,187.32,406.65,179.07,406.65,201.36Z"/><path class="cls-3" d="M480.48,203.05c-5.79,11.59-14.85,16.09-25.85,16.09-16.19,0-31.47-12.14-31.47-31.77s15.28-31.77,31.47-31.77c11,0,20.06,4.5,25.85,16.09a1.18,1.18,0,0,1-.61,1.74l-4.45,2.15a1.24,1.24,0,0,1-1.77-.68c-4.43-8.75-11.21-12.22-19-12.22-13.21,0-22.74,10.07-22.74,24.69s9.53,24.69,22.74,24.69c7.81,0,14.59-3.47,19-12.22a1.24,1.24,0,0,1,1.77-.68l4.45,2.15A1.18,1.18,0,0,1,480.48,203.05Z"/><path class="cls-3" d="M555.69,157.77V217a1.28,1.28,0,0,1-1.26,1.27h-5.8a1.28,1.28,0,0,1-1.26-1.27V190H509v27a1.29,1.29,0,0,1-1.27,1.27h-5.79a1.29,1.29,0,0,1-1.27-1.27V157.77a1.29,1.29,0,0,1,1.27-1.26h5.79a1.29,1.29,0,0,1,1.27,1.26v25.15h38.42V157.77a1.28,1.28,0,0,1,1.26-1.26h5.8A1.28,1.28,0,0,1,555.69,157.77Z"/><path class="cls-3" d="M639.1,187.37c0,19.63-15.28,31.77-31.47,31.77S576.17,207,576.17,187.37s15.27-31.77,31.46-31.77S639.1,167.74,639.1,187.37Zm-8.73,0c0-14.62-9.53-24.69-22.74-24.69s-22.74,10.07-22.74,24.69,9.54,24.69,22.74,24.69S630.37,202,630.37,187.37Z"/><path class="cls-3" d="M718.54,187.37c0,19.63-15.27,31.77-31.46,31.77S655.61,207,655.61,187.37s15.28-31.77,31.47-31.77S718.54,167.74,718.54,187.37Zm-8.72,0c0-14.62-9.54-24.69-22.74-24.69s-22.74,10.07-22.74,24.69,9.53,24.69,22.74,24.69S709.82,202,709.82,187.37Z"/><path class="cls-3" d="M778.7,212.41V217a1.19,1.19,0,0,1-1.26,1.27H736.28A1.28,1.28,0,0,1,735,217V157.77a1.28,1.28,0,0,1,1.26-1.26h5.8a1.28,1.28,0,0,1,1.26,1.26v53.38h34.1A1.19,1.19,0,0,1,778.7,212.41Z"/></svg>