<?xml version="1.0" encoding="UTF-8"?>
<svg xmlns="http://www.w3.org/2000/svg" xmlns:xlink="http://www.w3.org/1999/xlink" viewBox="0 0 48 48" version="1.1" width="480px" height="480px">
<g id="surface1">
<path style=" fill:#03A9F4;" d="M 40 20 C 40.390625 18.265625 39.90625 16.21875 37.5 14 C 33.585938 17.542969 34.703125 21.226563 36 23 C 36 23 35.835938 24 32 24 C 28.164063 24 2 24 2 24 C 2 24 0.167969 40 18 40 C 33.59375 40 37.972656 27.996094 38.828125 24.925781 C 39.183594 24.972656 39.578125 25.003906 40 25 C 42.148438 24.984375 44.929688 23.828125 46 19.515625 C 43.160156 18.53125 41.339844 18.976563 40 20 Z "/>
<path style=" fill:#0288D1;" d="M 2.164063 28 C 2.898438 32.738281 5.984375 40 18 40 C 30.183594 40 35.523438 32.671875 37.683594 28 Z "/>
<path style=" fill:#81D4FA;" d="M 19.8125 39.9375 C 18.890625 39.617188 14.738281 38.847656 14 33 C 9.789063 34.863281 6.0625 34.375 4.421875 34.007813 C 6.582031 37.238281 10.589844 40 18 40 C 18.621094 40 19.222656 39.976563 19.8125 39.9375 Z "/>
<path style=" fill:#FFFFFF;" d="M 20 32 C 20 33.105469 19.105469 34 18 34 C 16.894531 34 16 33.105469 16 32 C 16 30.894531 16.894531 30 18 30 C 19.105469 30 20 30.894531 20 32 Z "/>
<path style=" fill:#37474F;" d="M 14.914063 33.597656 C 15.136719 34.101563 14.933594 34.757813 14.402344 34.914063 C 11.101563 35.886719 8.257813 36.015625 6.105469 36.015625 C 5.464844 35.398438 4.914063 34.738281 4.449219 34.054688 C 7.035156 34.054688 11.160156 33.933594 13.59375 33.089844 C 14.117188 32.90625 14.691406 33.089844 14.914063 33.597656 Z M 2 27 C 2 27 3.875 27.125 5 26 C 6.875 27.6875 10.941406 27.089844 12 26 C 13.0625 27.6875 18.9375 27.375 20 26 C 21.25 27.4375 26.625 27.75 28 26 C 28.480469 27.460938 34.820313 27.875 36 26 C 37.0625 27.089844 41.0625 27.9375 43.3125 26 C 43.875 27.1875 46 27 46 27 L 46 28 L 2 28 M 17 32 C 17 32.550781 17.449219 33 18 33 C 18.550781 33 19 32.550781 19 32 C 19 31.449219 18.550781 31 18 31 C 17.449219 31 17 31.449219 17 32 Z "/>
<path style=" fill:#01579B;" d="M 11 24 L 6 24 L 6 19 L 11 19 Z M 21 19 L 16 19 L 16 24 L 21 24 Z M 31 19 L 26 19 L 26 24 L 31 24 Z M 16 14 L 11 14 L 11 19 L 16 19 Z M 26 14 L 21 14 L 21 19 L 26 19 Z "/>
<path style=" fill:#0288D1;" d="M 16 24 L 11 24 L 11 19 L 16 19 Z M 26 19 L 21 19 L 21 24 L 26 24 Z M 26 9 L 21 9 L 21 14 L 26 14 Z M 21 14 L 16 14 L 16 19 L 21 19 Z "/>
</g>
</svg>
